<svg version="1.2" xmlns="http://www.w3.org/2000/svg" viewBox="55 91 700 400" width="850" height="850"><style>.a{fill:#b6b6b6}</style><path class="a" d="m411.6 265.3c3.1-6.3 4.7-12.5 4.7-18.8 0-20.4-14.1-32.9-34.5-32.9h-155.1c-9.4 0-17.2 3.1-25.1 7.8-7.8 6.3-12.5 14.1-14.1 22l-89.3 352.5c-3.1 11-1.6 20.4 4.7 28.2 6.3 7.9 15.7 12.6 26.6 12.6h100.3zm336.9 0c3.2-6.3 4.7-12.6 4.7-18.8 0-20.4-14.1-32.9-34.4-32.9h-155.2c-9.4 0-17.2 3.1-25 7.8-7.9 6.3-12.6 14.1-14.1 21.9l-89.4 352.6c-3.1 11-1.5 20.4 4.7 28.2 6.3 7.9 15.7 12.6 26.7 12.6h100.3z"/></svg>